<svg version="1.1" xmlns="http://www.w3.org/2000/svg" viewBox="0 0 480.55673269945146 465.2507908327474" width="1441.6701980983544" height="1395.752372498242" filter="invert(93%) hue-rotate(180deg)"><!-- svg-source:excalidraw --><metadata></metadata><defs><style class="style-fonts">
      </style></defs><rect x="0" y="0" width="480.55673269945146" height="465.2507908327474" fill="#ffffff"></rect><g stroke-linecap="round" transform="translate(12.786973615046122 10) rotate(0 222.6253954163737 222.6253954163737)"><path d="M32 0 C119.01 2.51, 203.13 3.4, 413.25 0 M32 0 C153.26 -1.5, 274.27 -1.77, 413.25 0 M413.25 0 C435.62 -1.03, 441.89 10.28, 445.25 32 M413.25 0 C436.96 -1.13, 442.88 9.67, 445.25 32 M445.25 32 C449.2 164.64, 450 298.3, 445.25 413.25 M445.25 32 C447.66 173.47, 446.75 317.38, 445.25 413.25 M445.25 413.25 C448.72 432.66, 436.41 444.81, 413.25 445.25 M445.25 413.25 C441.82 431.31, 433.45 445.6, 413.25 445.25 M413.25 445.25 C270.44 449.92, 124.53 447.08, 32 445.25 M413.25 445.25 C316.72 442.75, 220.07 442.44, 32 445.25 M32 445.25 C12.16 445.85, 0.09 435.96, 0 413.25 M32 445.25 C14.48 445.76, 1.46 429.99, 0 413.25 M0 413.25 C-5.07 322.01, -2.23 228.48, 0 32 M0 413.25 C2.07 304.76, 2.24 197.05, 0 32 M0 32 C0.66 12.45, 7.59 -1.74, 32 0 M0 32 C-3.86 12.73, 11.57 -3.91, 32 0" stroke="#1e1e1e" stroke-width="4" fill="none"></path></g><g stroke-linecap="round"><g transform="translate(469.9329298892892 453.3792223163798) rotate(0 -65.54188669687596 -60.374468159419855)"><path d="M0.62 1.19 C-21.44 -18.81, -109.47 -100.38, -131.46 -120.71 M-0.51 0.76 C-22.85 -18.95, -110.66 -99.1, -132.6 -119.14" stroke="#1e1e1e" stroke-width="2" fill="none"></path></g><g transform="translate(469.9329298892892 453.3792223163798) rotate(0 -65.54188669687596 -60.374468159419855)"><path d="M-109.49 -109.63 C-116.19 -113.73, -126.84 -117.03, -132.6 -119.14 M-109.49 -109.63 C-117.18 -112.78, -122.48 -115.87, -132.6 -119.14" stroke="#1e1e1e" stroke-width="2" fill="none"></path></g><g transform="translate(469.9329298892892 453.3792223163798) rotate(0 -65.54188669687596 -60.374468159419855)"><path d="M-121.01 -96.99 C-123.28 -105.94, -129.57 -114.02, -132.6 -119.14 M-121.01 -96.99 C-125.16 -103.83, -127.03 -110.68, -132.6 -119.14" stroke="#1e1e1e" stroke-width="2" fill="none"></path></g></g><mask></mask><g stroke-linecap="round"><g transform="translate(10.92547974064945 14.450711861259663) rotate(0 57.47665635883391 54.25530984183048)"><path d="M-0.93 -0.23 C17.95 18, 94.61 90.3, 113.81 108.34 M0.79 -1.4 C19.97 17.12, 97.19 91.37, 115.92 109.79" stroke="#1e1e1e" stroke-width="2" fill="none"></path></g><g transform="translate(10.92547974064945 14.450711861259663) rotate(0 57.47665635883391 54.25530984183048)"><path d="M93.1 99.56 C100.5 101.36, 108.48 105.68, 115.92 109.79 M93.1 99.56 C98.34 101.95, 105.38 105.38, 115.92 109.79" stroke="#1e1e1e" stroke-width="2" fill="none"></path></g><g transform="translate(10.92547974064945 14.450711861259663) rotate(0 57.47665635883391 54.25530984183048)"><path d="M105.02 87.29 C108.19 93.23, 112.06 101.79, 115.92 109.79 M105.02 87.29 C107.24 92.91, 111.17 99.54, 115.92 109.79" stroke="#1e1e1e" stroke-width="2" fill="none"></path></g></g><mask></mask><g stroke-linecap="round"><g transform="translate(452.35507269029404 10.98921980334103) rotate(0 -57.10218178131424 55.59572562527094)"><path d="M0.24 1.13 C-18.97 19.82, -94.99 93.6, -114.15 111.83 M-1.1 0.67 C-20.55 19.04, -95.96 91.58, -115.06 110.05" stroke="#1e1e1e" stroke-width="2" fill="none"></path></g><g transform="translate(452.35507269029404 10.98921980334103) rotate(0 -57.10218178131424 55.59572562527094)"><path d="M-104.08 87.59 C-106.56 96.49, -111.66 104.34, -115.06 110.05 M-104.08 87.59 C-106.14 92.6, -109.17 97.49, -115.06 110.05" stroke="#1e1e1e" stroke-width="2" fill="none"></path></g><g transform="translate(452.35507269029404 10.98921980334103) rotate(0 -57.10218178131424 55.59572562527094)"><path d="M-92.21 99.9 C-99.3 104.01, -109.05 107.04, -115.06 110.05 M-92.21 99.9 C-97.17 101.82, -103.1 103.71, -115.06 110.05" stroke="#1e1e1e" stroke-width="2" fill="none"></path></g></g><mask></mask><g stroke-linecap="round"><g transform="translate(24.355918207402112 447.3593700097994) rotate(0 56.06340133933077 -58.61153623071209)"><path d="M-0.22 0.97 C18.29 -18.57, 92.5 -96.91, 111.34 -116.69 M-1.79 0.43 C17.08 -19.51, 94.61 -99.02, 113.64 -118.53" stroke="#1e1e1e" stroke-width="2" fill="none"></path></g><g transform="translate(24.355918207402112 447.3593700097994) rotate(0 56.06340133933077 -58.61153623071209)"><path d="M103.36 -95.74 C108.18 -104.37, 110.77 -109.28, 113.64 -118.53 M103.36 -95.74 C105.18 -102.31, 108.66 -107.58, 113.64 -118.53" stroke="#1e1e1e" stroke-width="2" fill="none"></path></g><g transform="translate(24.355918207402112 447.3593700097994) rotate(0 56.06340133933077 -58.61153623071209)"><path d="M91.12 -107.68 C99.93 -112.44, 106.46 -113.51, 113.64 -118.53 M91.12 -107.68 C96.23 -111.22, 102.91 -113.38, 113.64 -118.53" stroke="#1e1e1e" stroke-width="2" fill="none"></path></g></g><mask></mask><g stroke-linecap="round" transform="translate(126.63395731304138 118.21910773186923) rotate(0 107.95901690176805 107.95901690176804)"><path d="M32 0 C76.93 -6.29, 129.97 0.51, 183.92 0 C208.09 -4.94, 217.31 14.22, 215.92 32 C215.72 71.06, 210.06 103.33, 215.92 183.92 C213.29 201.27, 201.28 221.46, 183.92 215.92 C152.73 216.59, 120.15 219.46, 32 215.92 C15.37 217.75, 4.1 209.36, 0 183.92 C3.91 133, 3.47 83.59, 0 32 C2.4 13.62, 6.82 3.19, 32 0" stroke="none" stroke-width="0" fill="#b2f2bb"></path><path d="M32 0 C64.75 -0.21, 97.61 1.33, 183.92 0 M32 0 C83.9 3.94, 132.69 3.68, 183.92 0 M183.92 0 C203.38 2.58, 215.53 7.13, 215.92 32 M183.92 0 C208.08 -1.05, 214.96 11.5, 215.92 32 M215.92 32 C213.79 76.14, 210.75 113.72, 215.92 183.92 M215.92 32 C216.39 71.34, 216.74 110.44, 215.92 183.92 M215.92 183.92 C212.49 204.63, 208.42 213.83, 183.92 215.92 M215.92 183.92 C217.57 207.5, 209.54 219.18, 183.92 215.92 M183.92 215.92 C122.29 221.84, 65.44 220.19, 32 215.92 M183.92 215.92 C125.13 216.68, 71.53 215.5, 32 215.92 M32 215.92 C9.12 218.71, 1.43 206.15, 0 183.92 M32 215.92 C9.12 214.38, -3.31 207.14, 0 183.92 M0 183.92 C2.7 152.86, 2.18 117.51, 0 32 M0 183.92 C-3.56 129.73, -0.74 72.9, 0 32 M0 32 C1.25 7.58, 12.95 0.99, 32 0 M0 32 C-1.5 8.29, 9.35 -3.65, 32 0" stroke="#2f9e44" stroke-width="4" fill="none"></path></g><g stroke-linecap="round"><g transform="translate(128.5379392768096 169.5678121682279) rotate(0 13.817221449825126 -5.526888579930052)"><path d="M0.36 -0.53 C2.5 -1.79, 8.58 -5.78, 13.05 -7.59 C17.52 -9.4, 24.65 -10.9, 27.17 -11.39 M-0.13 0.38 C1.97 -1.02, 8.15 -6.49, 12.88 -8.38 C17.61 -10.27, 25.91 -10.46, 28.24 -10.97" stroke="#2f9e44" stroke-width="4" fill="none"></path></g></g><mask></mask><g stroke-linecap="round"><g transform="translate(157.4613876510964 157.93737943605169) rotate(0 13.817221449825126 4.894068269433099)"><path d="M-0.18 -0.43 C1.84 1.17, 7.34 7.77, 11.97 9.29 C16.6 10.81, 25.08 8.76, 27.6 8.68 M0.73 0.54 C2.68 2.21, 7 8.33, 11.41 9.74 C15.83 11.15, 24.65 9.12, 27.24 9.01" stroke="#2f9e44" stroke-width="4" fill="none"></path></g></g><mask></mask><g stroke-linecap="round"><g transform="translate(184.14924187914602 167.17853407437505) rotate(0 13.817221449825126 3.9580833368914696)"><path d="M0.31 -0.43 C3.01 0.97, 11.09 7.72, 15.64 7.83 C20.19 7.93, 25.54 1.42, 27.61 0.2 M-0.19 0.54 C2.48 2.07, 10.65 8.47, 15.22 8.48 C19.79 8.49, 25.05 1.85, 27.25 0.58" stroke="#2f9e44" stroke-width="4" fill="none"></path></g></g><mask></mask><g stroke-linecap="round"><g transform="translate(212.5274836046019 166.73837818840894) rotate(0 9.66537163146765 -0.1510214317416967)"><path d="M-0.5 0.44 C0.91 0.3, 4.57 -0.47, 7.91 -0.47 C11.25 -0.47, 17.62 0.24, 19.55 0.43 M0.25 0.19 C1.63 -0.16, 4.33 -1.52, 7.51 -1.37 C10.69 -1.21, 17.29 0.92, 19.31 1.1" stroke="#2f9e44" stroke-width="4" fill="none"></path></g></g><mask></mask><g stroke-linecap="round"><g transform="translate(234.17681355045175 168.50160829660751) rotate(0 9.66537163146765 0.4446790166640646)"><path d="M-0.02 -0.12 C1.33 -0.05, 4.79 0.72, 8.05 0.76 C11.31 0.8, 17.6 0.15, 19.54 0.13 M-0.69 -0.66 C0.83 -0.53, 5.74 1.18, 9.08 1.39 C12.41 1.61, 17.47 0.93, 19.3 0.64" stroke="#2f9e44" stroke-width="4" fill="none"></path></g></g><mask></mask><g stroke-linecap="round"><g transform="translate(254.1174651158679 168.1026498224077) rotate(0 9.66537163146765 -2.1169068380652085)"><path d="M0.38 -0.33 C2.26 -1.17, 8.31 -4.23, 11.52 -4.56 C14.73 -4.89, 18.33 -2.78, 19.63 -2.32 M-0.08 0.7 C1.7 0.15, 7.8 -3.62, 11.05 -4.03 C14.31 -4.44, 18.04 -1.98, 19.44 -1.78" stroke="#2f9e44" stroke-width="4" fill="none"></path></g></g><mask></mask><g stroke-linecap="round"><g transform="translate(274.46476042820245 167.2833317687909) rotate(0 9.66537163146765 -2.1169068380652085)"><path d="M0 0.09 C1.92 -0.62, 8.37 -3.69, 11.57 -3.99 C14.77 -4.29, 17.85 -1.95, 19.22 -1.7 M-0.66 -0.34 C1.18 -1.23, 7.88 -4.47, 11.13 -4.83 C14.37 -5.19, 17.59 -2.95, 18.82 -2.5" stroke="#2f9e44" stroke-width="4" fill="none"></path></g></g><mask></mask><g stroke-linecap="round"><g transform="translate(291.16392520197536 164.87467802117908) rotate(0 9.66537163146765 -0.7137999812598004)"><path d="M0.23 0.49 C2 0.68, 7.58 1.63, 10.75 1.13 C13.92 0.64, 17.8 -1.87, 19.25 -2.5 M-0.31 0.27 C1.39 0.3, 7.27 0.73, 10.46 0.34 C13.66 -0.04, 17.33 -1.6, 18.85 -2.04" stroke="#2f9e44" stroke-width="4" fill="none"></path></g></g><mask></mask><g stroke-linecap="round"><g transform="translate(310.2750580115895 161.5977412037533) rotate(0 15.052404327097065 1.9363441190824489)"><path d="M0.72 1.2 C2.44 1.35, 4.87 0.8, 9.67 1.06 C14.47 1.31, 26.25 2.24, 29.5 2.74 M-0.36 0.78 C1.8 0.53, 7.16 -1.38, 11.96 -0.93 C16.76 -0.48, 25.58 2.43, 28.42 3.46" stroke="#2f9e44" stroke-width="2" fill="none"></path></g></g><mask></mask></svg>